# Blender v2.77 (sub 0) OBJ File: ''
# www.blender.org
mtllib bullet.mtl
o Sphere_Sphere.001
v 0.412183 0.512126 -0.158278
v 0.048912 0.012126 -0.158278
v 0.048912 -0.605908 -0.158278
v 0.412183 -1.105908 -0.158278
v 0.999969 -1.296891 -0.158278
v 0.505492 0.512126 -0.476059
v 0.199889 0.012126 -0.672458
v 0.199889 -0.605908 -0.672458
v 0.505492 -1.105908 -0.476059
v 0.755794 0.512126 -0.692946
v 0.604885 0.012126 -1.023390
v 0.604885 -0.605908 -1.023390
v 0.755794 -1.105908 -0.692946
v 1.083619 0.512126 -0.740081
v 1.135318 0.012126 -1.099654
v 1.135318 -0.605908 -1.099654
v 1.083619 -1.105908 -0.740081
v 1.384886 0.512126 -0.602497
v 1.622778 0.012126 -0.877039
v 1.622778 -0.605908 -0.877039
v 1.384886 -1.105908 -0.602497
v 1.563944 0.512126 -0.323877
v 1.912500 0.012126 -0.426222
v 1.912500 -0.605908 -0.426222
v 1.563944 -1.105908 -0.323877
v 1.563944 0.512126 0.007320
v 1.912501 0.012126 0.109665
v 1.912501 -0.605908 0.109665
v 1.563944 -1.105908 0.007320
v 1.384886 0.512126 0.285940
v 1.622778 0.012126 0.560482
v 1.622778 -0.605908 0.560482
v 1.384886 -1.105908 0.285940
v 1.083619 0.512126 0.423524
v 1.135318 0.012126 0.783098
v 1.135318 -0.605908 0.783098
v 1.083619 -1.105908 0.423524
v 0.755794 0.512126 0.376390
v 0.604886 0.012126 0.706833
v 0.604886 -0.605908 0.706833
v 0.755794 -1.105908 0.376390
v 0.999968 0.703109 -0.158278
v 0.505492 0.512126 0.159503
v 0.199889 0.012126 0.355902
v 0.199889 -0.605908 0.355902
v 0.505492 -1.105908 0.159503
vn -0.3078 -0.9472 -0.0904
vn -0.9595 -0.0000 -0.2817
vn -0.3078 0.9472 -0.0904
vn -0.7871 -0.5719 -0.2311
vn -0.7871 0.5719 -0.2311
vn -0.2100 -0.9472 -0.2424
vn -0.6549 -0.0000 -0.7557
vn -0.2100 0.9472 -0.2424
vn -0.5372 -0.5719 -0.6200
vn -0.5372 0.5719 -0.6200
vn -0.0456 -0.9472 -0.3175
vn -0.1423 0.0000 -0.9898
vn -0.0456 0.9472 -0.3175
vn -0.1167 -0.5719 -0.8120
vn -0.1167 0.5719 -0.8120
vn 0.1332 -0.9472 -0.2918
vn 0.4154 -0.0000 -0.9096
vn 0.1332 0.9472 -0.2918
vn 0.3408 -0.5719 -0.7462
vn 0.3408 0.5719 -0.7462
vn 0.2698 -0.9472 -0.1734
vn 0.8413 0.0000 -0.5406
vn 0.2698 0.9472 -0.1734
vn 0.6901 -0.5719 -0.4435
vn 0.6901 0.5719 -0.4435
vn 0.3207 -0.9472 0.0000
vn 1.0000 0.0000 -0.0000
vn 0.3207 0.9472 -0.0000
vn 0.8203 -0.5719 0.0000
vn 0.8203 0.5719 -0.0000
vn 0.2698 -0.9472 0.1734
vn 0.8413 -0.0000 0.5406
vn 0.2698 0.9472 0.1734
vn 0.6901 -0.5719 0.4435
vn 0.6901 0.5719 0.4435
vn 0.1332 -0.9472 0.2918
vn 0.4154 0.0000 0.9096
vn 0.1332 0.9472 0.2918
vn 0.3408 -0.5719 0.7462
vn 0.3408 0.5719 0.7462
vn -0.0456 -0.9472 0.3175
vn -0.1423 0.0000 0.9898
vn -0.0456 0.9472 0.3175
vn -0.1167 -0.5719 0.8120
vn -0.1167 0.5719 0.8120
vn -0.2100 -0.9472 0.2424
vn -0.6549 -0.0000 0.7557
vn -0.2100 0.9472 0.2424
vn -0.5372 -0.5719 0.6200
vn -0.5372 0.5719 0.6200
vn -0.3078 -0.9472 0.0904
vn -0.9595 -0.0000 0.2817
vn -0.3078 0.9472 0.0904
vn -0.7871 -0.5719 0.2311
vn -0.7871 0.5719 0.2311
usemtl Material.001
s off
f 5//1 4//1 9//1
f 2//2 8//2 3//2
f 1//3 42//3 6//3
f 4//4 8//4 9//4
f 1//5 7//5 2//5
f 5//6 9//6 13//6
f 7//7 12//7 8//7
f 6//8 42//8 10//8
f 8//9 13//9 9//9
f 6//10 11//10 7//10
f 5//11 13//11 17//11
f 11//12 16//12 12//12
f 10//13 42//13 14//13
f 12//14 17//14 13//14
f 10//15 15//15 11//15
f 5//16 17//16 21//16
f 15//17 20//17 16//17
f 14//18 42//18 18//18
f 17//19 20//19 21//19
f 14//20 19//20 15//20
f 5//21 21//21 25//21
f 19//22 24//22 20//22
f 18//23 42//23 22//23
f 20//24 25//24 21//24
f 18//25 23//25 19//25
f 5//26 25//26 29//26
f 23//27 28//27 24//27
f 22//28 42//28 26//28
f 25//29 28//29 29//29
f 23//30 26//30 27//30
f 5//31 29//31 33//31
f 27//32 32//32 28//32
f 26//33 42//33 30//33
f 29//34 32//34 33//34
f 26//35 31//35 27//35
f 5//36 33//36 37//36
f 31//37 36//37 32//37
f 30//38 42//38 34//38
f 33//39 36//39 37//39
f 30//40 35//40 31//40
f 5//41 37//41 41//41
f 35//42 40//42 36//42
f 34//43 42//43 38//43
f 36//44 41//44 37//44
f 34//45 39//45 35//45
f 5//46 41//46 46//46
f 39//47 45//47 40//47
f 38//48 42//48 43//48
f 40//49 46//49 41//49
f 38//50 44//50 39//50
f 5//51 46//51 4//51
f 44//52 3//52 45//52
f 43//53 42//53 1//53
f 45//54 4//54 46//54
f 43//55 2//55 44//55
f 2//2 7//2 8//2
f 4//4 3//4 8//4
f 1//5 6//5 7//5
f 7//7 11//7 12//7
f 8//9 12//9 13//9
f 6//10 10//10 11//10
f 11//12 15//12 16//12
f 12//14 16//14 17//14
f 10//15 14//15 15//15
f 15//17 19//17 20//17
f 17//19 16//19 20//19
f 14//20 18//20 19//20
f 19//22 23//22 24//22
f 20//24 24//24 25//24
f 18//25 22//25 23//25
f 23//27 27//27 28//27
f 25//29 24//29 28//29
f 23//30 22//30 26//30
f 27//32 31//32 32//32
f 29//34 28//34 32//34
f 26//35 30//35 31//35
f 31//37 35//37 36//37
f 33//39 32//39 36//39
f 30//40 34//40 35//40
f 35//42 39//42 40//42
f 36//44 40//44 41//44
f 34//45 38//45 39//45
f 39//47 44//47 45//47
f 40//49 45//49 46//49
f 38//50 43//50 44//50
f 44//52 2//52 3//52
f 45//54 3//54 4//54
f 43//55 1//55 2//55
